<svg width="235" height="234" viewBox="0 0 235 234" fill="none" xmlns="http://www.w3.org/2000/svg">
<rect x="4" y="4" width="227" height="226" rx="50" fill="#1DA7FF" stroke="#5051F9" stroke-width="8"/>
<path d="M121 38C121 35.7909 119.209 34 117 34C114.791 34 113 35.7909 113 38L121 38ZM113 223L113 227L121 227L121 223L113 223ZM113 38L113 223L121 223L121 38L113 38Z" fill="#FFF9F9"/>
<circle cx="58.5" cy="66.5" r="24.5" stroke="white" stroke-width="8"/>
<path d="M119 69C122 69 137.655 43 173 43C208.345 43 224 69 227 69" stroke="white" stroke-width="8"/>
<path d="M8 112C14.5 112 13.5 137.5 61 137.5C108.5 137.5 130 96 172.5 96C215 96 220.5 112 227 112" stroke="white" stroke-width="8"/>
<path d="M8 165C14.5 165 13.5 190.5 61 190.5C108.5 190.5 130 149 172.5 149C215 149 220.5 165 227 165" stroke="white" stroke-width="8"/>
</svg>
